<svg aria-hidden="true" style="position:absolute;width:0;height:0" xmlns="http://www.w3.org/2000/svg" overflow="hidden"><defs><symbol id="ALARM-icon" viewBox="0 0 32 32"><path fill="var(--color1, #95e1d3)" d="M30.74 10c-1.624-3.714-4.528-6.617-8.142-8.2l-.101-.04A5.828 5.828 0 0 1 26.133.498a5.868 5.868 0 0 1 4.598 9.514L30.74 10zm-.24 6.5v.002c0 3.854-1.509 7.355-3.969 9.944l.006-.006 2.029 2.03A1.481 1.481 0 0 1 27.518 31h-.001a1.506 1.506 0 0 1-1.049-.43l-2.178-2.18A14.35 14.35 0 0 1 16 31a14.4 14.4 0 0 1-8.322-2.631l.046.031-2.163 2.16a1.5 1.5 0 1 1-2.122-2.12l2.012-2.01a14.438 14.438 0 0 1-3.941-9.936C1.51 8.489 8 1.999 16.005 1.999S30.5 8.489 30.5 16.494v.006zM16 5C9.649 5 4.5 10.149 4.5 16.5S9.649 28 16 28s11.5-5.149 11.5-11.5S22.351 5 16 5zm6 13h-6a1.5 1.5 0 0 1-1.5-1.5v-8a1.5 1.5 0 0 1 3 0V15H22a1.5 1.5 0 0 1 0 3zM1.287 10.21A5.96 5.96 0 0 1 .003 6.5 6 6 0 0 1 6 .5h.012c1.402 0 2.691.486 3.706 1.299l-.012-.009c-3.797 1.655-6.765 4.622-8.379 8.317l-.04.103z"/></symbol><symbol id="BOOK-2-icon" viewBox="0 0 32 32"><path fill="var(--color1, #95e1d3)" d="M31.065 25.89l-14.471 5.99a1.52 1.52 0 0 1-1.198-.004l.01.004L.935 25.89A1.503 1.503 0 0 1 0 24.5v-23A1.5 1.5 0 0 1 1.5 0c.206 0 .403.04.583.114L2.073.11c.001.006.006.01.012.01h.001L16 5.88 29.911.12h.001a.012.012 0 0 0 .012-.01c.17-.07.367-.11.573-.11a1.5 1.5 0 0 1 1.5 1.5v23.002c0 .624-.381 1.158-.922 1.385l-.01.004zM14.5 8.5L3 3.74V23.5l11.5 4.76V8.5zM29 3.74L17.5 8.5v19.76L29 23.5V3.74zm-9.121 6.89l5.5-2.5c.183-.081.396-.129.62-.13h.01a1.5 1.5 0 0 1 .62 2.866l-.009.004-5.5 2.5a1.575 1.575 0 0 1-.62.13h-.011a1.5 1.5 0 0 1-.62-2.866l.009-.004zm0 5.5l5.5-2.5c.183-.081.396-.129.62-.13h.01a1.5 1.5 0 0 1 .62 2.866l-.009.004-5.5 2.5v-.01a1.43 1.43 0 0 1-.62.14h-.011a1.5 1.5 0 0 1-.62-2.866l.009-.004zm0 5.5l5.5-2.5c.183-.081.396-.129.62-.13h.01a1.5 1.5 0 0 1 .62 2.866l-.009.004-5.5 2.5a1.575 1.575 0 0 1-.62.13h-.011a1.5 1.5 0 0 1-.62-2.866l.009-.004zM6 8c.225.002.438.049.631.134l-.01-.004 5.5 2.5a1.5 1.5 0 0 1-.611 2.87h-.011.001a1.578 1.578 0 0 1-.631-.134l.01.004-5.5-2.5A1.5 1.5 0 0 1 5.99 8h.011H6zm0 5.5c.225.002.438.049.631.134l-.01-.004 5.5 2.5A1.5 1.5 0 0 1 11.51 19h-.011.001-.002c-.225 0-.438-.052-.628-.144l.009.004v.01l-5.5-2.5a1.5 1.5 0 0 1 .611-2.87h.011H6zM6 19c.225.002.438.049.631.134l-.01-.004 5.5 2.5a1.5 1.5 0 0 1-.611 2.87h-.011.001a1.578 1.578 0 0 1-.631-.134l.01.004-5.5-2.5A1.5 1.5 0 0 1 5.99 19h.011H6z"/></symbol><symbol id="COMPUTER-_-OK-icon" viewBox="0 0 32 32"><path fill="var(--color1, #95e1d3)" d="M30.452 25.29h-9.806v2.581l2.065 2.065v.516H9.292v-.516l2.065-2.065V25.29H1.551a1.548 1.548 0 0 1-1.548-1.548V3.097c0-.855.693-1.548 1.548-1.548h28.903c.855 0 1.548.693 1.548 1.548v20.645c0 .855-.693 1.548-1.548 1.548zm-.517-21.677H2.064v17.548h27.871V3.613zm-17.032 7.226c.427.001.814.174 1.094.454l.97.97 3.035-3.035a1.548 1.548 0 1 1 2.189 2.187l-.001.001-4.129 4.129c-.28.28-.667.453-1.094.453s-.814-.173-1.094-.453l-2.065-2.065a1.547 1.547 0 0 1 1.094-2.642z"/></symbol><symbol id="HOME-icon" viewBox="0 0 32 32"><path fill="var(--color1, #95e1d3)" d="M32 16.5v.006a1.492 1.492 0 0 1-2.521 1.083l.001.001v.01L16.003 4.12 2.557 17.57A1.5 1.5 0 0 1 .004 16.5v-.007c0-.422.177-.803.46-1.072l.001-.001L14.923.96A1.505 1.505 0 0 1 16.004.5h.092c.023 0 .045.01.068.01.371.04.696.213.932.469l.001.001 5.9 5.9V5.5a1.5 1.5 0 0 1 3 0v4.38l5.6 5.6c.25.265.403.623.403 1.017v.003zM29 19v10.5a1.5 1.5 0 0 1-1.5 1.5h-3V19h-6v12h-14A1.5 1.5 0 0 1 3 29.5V19L16 6zm-15.5 0h-6v6h6v-6z"/></symbol><symbol id="IMAGE-icon" viewBox="0 0 32 32"><path fill="var(--color1, #95e1d3)" d="M30.5 32h-29A1.5 1.5 0 0 1 0 30.5v-29A1.5 1.5 0 0 1 1.5 0h29A1.5 1.5 0 0 1 32 1.5v29a1.5 1.5 0 0 1-1.5 1.5zM29 3H3v26h26V3zM6.5 4.5H12a1.5 1.5 0 0 1 0 3H7.5V12a1.5 1.5 0 0 1-3 0V4.5h2zM4.5 20a1.5 1.5 0 0 1 3 0v4.5H12a1.5 1.5 0 0 1 0 3H4.5V20zM20 4.5h7.5V12a1.5 1.5 0 0 1-3 0V7.5H20a1.5 1.5 0 0 1 0-3zm0 20h4.5V20a1.5 1.5 0 0 1 3 0v7.5H20a1.5 1.5 0 0 1 0-3z"/></symbol><symbol id="LINE-GRAPH-icon" viewBox="0 0 32 32"><path fill="var(--color1, #95e1d3)" d="M30.5 32h-29A1.5 1.5 0 0 1 0 30.5v-29A1.5 1.5 0 0 1 1.5 0h29A1.5 1.5 0 0 1 32 1.5v29a1.5 1.5 0 0 1-1.5 1.5zM29 3H3v26h26V3zM5.215 16.24l4-2.5a1.518 1.518 0 0 1 1.631.033l-.006-.004h.006l6.631 4.42 7.638-5.4a1.501 1.501 0 0 1 1.767 2.427l-.004.003-8.5 6c-.242.18-.547.289-.878.29a1.494 1.494 0 0 1-.865-.283l.004.003-6.657-4.43-3.135 1.95c-.236.169-.529.27-.847.27h-.003a1.5 1.5 0 0 1-.788-2.776l.006-.004z"/></symbol><symbol id="MAGNIFYING-GLASS-icon" viewBox="0 0 32 32"><path d="M31.111 26.862a3.002 3.002 0 0 1-4.25 4.236l.001.001-8.769-8.78a11.896 11.896 0 0 1-6.132 1.68c-6.645 0-12.032-5.387-12.032-12.032S5.316-.065 11.961-.065c6.645 0 12.032 5.387 12.032 12.032 0 2.255-.62 4.365-1.7 6.169l.03-.055 8.788 8.78zm-19.1-23.846a8.987 8.987 0 1 0 8.987 8.987 8.993 8.993 0 0 0-8.987-8.987z"/></symbol><symbol id="SHOPPING-CART-icon" viewBox="0 0 40 32"><path d="M40.027 7.082l-5.659 12.551a1.861 1.861 0 0 1-1.592 1.104h-.005l-16.248 1.084.936 2.686h17.709a3.765 3.765 0 1 1-3.765 3.767H13.831a3.765 3.765 0 1 1-3.765-3.767h3.4L6.209 3.797H1.896a1.883 1.883 0 1 1 0-3.766h5.659c.817.006 1.51.525 1.776 1.251l.004.013 1.095 3.133h27.873c1.04 0 1.884.843 1.885 1.883a2.136 2.136 0 0 1-.165.783l.005-.014zM11.752 8.194l3.469 9.943 16.18-1.079 3.994-8.863H11.753z"/></symbol><symbol id="facebook-icon" viewBox="0 0 15 32"><path d="M14.995.013v5.148s-3.795-.375-4.748 1.075c-.52.8-.211 3.124-.257 4.798h5.034c-.425 1.949-.73 3.274-1.043 4.973H9.962v15.994H2.987V16.069H.019v-5.036h2.935c.15-3.686.206-7.335 2.036-9.184C7.047-.238 9.011.012 14.995.012z"/></symbol><symbol id="instagram-icon" viewBox="0 0 32 32"><path d="M27.968 32.001H3.977a4 4 0 0 1-3.999-3.999V4.011A4 4 0 0 1 3.977.012h23.991a4 4 0 0 1 3.999 3.999v23.991a4 4 0 0 1-3.999 3.999zM15.973 9.809h-.001a6.192 6.192 0 0 0-5.606 3.561l-.016.038a.343.343 0 0 1-.028.064l.001-.001a5.093 5.093 0 0 0-.142.357l-.018.056c-.024.062-.05.125-.071.187-.046.137-.084.287-.125.425a4.512 4.512 0 0 0-.052.2 5.3 5.3 0 0 0-.076.462c-.009.062-.021.125-.029.187a5.87 5.87 0 0 0-.036.661v.001a6.198 6.198 0 0 0 12.396 0 6.56 6.56 0 0 0-.039-.691l.003.029c-.008-.062-.02-.125-.029-.187a5.635 5.635 0 0 0-.083-.499l.007.037a5.773 5.773 0 0 0-.063-.242l.01.042c-.035-.137-.072-.287-.125-.425-.021-.062-.047-.125-.071-.187a6.62 6.62 0 0 0-.18-.464l.02.052a.297.297 0 0 1-.027-.06l-.001-.002c-1.004-2.141-3.141-3.597-5.618-3.599zm12.395-4.598v-.003c0-.882-.715-1.597-1.597-1.597h-3.205c-.882 0-1.597.715-1.597 1.597v3.204c0 .882.715 1.597 1.597 1.597h3.205c.882 0 1.597-.715 1.597-1.597V5.21zm0 8.197h-2.949c.222.778.35 1.671.35 2.595 0 5.41-4.386 9.796-9.796 9.796s-9.796-4.386-9.796-9.796c0-.923.128-1.817.367-2.664l-.017.069H3.578v13.398c0 .882.715 1.597 1.597 1.597h21.598c.882 0 1.597-.715 1.597-1.597V13.408z"/></symbol><symbol id="pinterest-icon" viewBox="0 0 24 32"><path d="M10.173 20.78c-.261 1.05-.525 2.137-.797 3.199a23.353 23.353 0 0 1-.951 3.25l.054-.164a15.909 15.909 0 0 1-2.575 4.438l.022-.027c-.718.825-.566.5-.782.45-.165-.038-.179-.2-.211-.425a24.233 24.233 0 0 1 .016-4.268l-.007.094c.115-1.599.377-3.082.774-4.508l-.038.16c.605-2.574 1.182-5.098 1.793-7.697.063-.162.104-.35.112-.546v-.004a7.876 7.876 0 0 1-.533-2.087l-.003-.037a6.808 6.808 0 0 1 .184-2.484l-.011.047a4.047 4.047 0 0 1 2.341-2.914l.026-.01c.263-.091.565-.144.88-.144.471 0 .915.118 1.302.327l-.015-.007a2.32 2.32 0 0 1 1.081 1.535l.002.015a5.586 5.586 0 0 1-.108 2.4l.009-.039c-.334 1.524-.772 2.674-1.171 4.136a4.597 4.597 0 0 0-.233 2.287l-.003-.025a2.663 2.663 0 0 0 1.05 1.594l.008.005a3.09 3.09 0 0 0 2.041.574l-.01.001a4.47 4.47 0 0 0 3.303-1.946l.01-.016a11.526 11.526 0 0 0 2.091-5.822l.002-.039a14.831 14.831 0 0 0 .086-2.548l.002.037a6.81 6.81 0 0 0-1.42-3.914l.012.016a6.626 6.626 0 0 0-3.092-2.124l-.047-.013a10.131 10.131 0 0 0-2.959-.432c-.609 0-1.205.053-1.785.153l.062-.009a8.289 8.289 0 0 0-6.12 4.365l-.022.046a8.738 8.738 0 0 0-1.046 4.175v.091-.005a5.525 5.525 0 0 0 .86 3.147l-.013-.023c.166.25.41.462.572.75a2.13 2.13 0 0 1-.154 1.462l.006-.013c-.137.537-.152 1.262-.772 1.275a1.708 1.708 0 0 1-.803-.304l.005.004a6.395 6.395 0 0 1-3.023-4.642l-.003-.032c-.118-.607-.185-1.305-.185-2.018s.067-1.411.196-2.087l-.011.069a11.596 11.596 0 0 1 5.444-7.655l.054-.029A12.774 12.774 0 0 1 10.485.158l.067-.007c.59-.089 1.284-.147 1.988-.162h.018a11.987 11.987 0 0 1 5.482 1.03l-.076-.03a11.152 11.152 0 0 1 3.716 2.678l.008.009a10.143 10.143 0 0 1 2.274 4.064l.018.072c.292.85.473 1.83.5 2.848v.013a17.324 17.324 0 0 1-.407 3.077l.022-.116a11.66 11.66 0 0 1-4.761 8.036l-.035.024a8.572 8.572 0 0 1-5.014 1.374h.016a5.79 5.79 0 0 1-2.507-.74l.029.015a4.171 4.171 0 0 1-1.638-1.543l-.01-.019z"/></symbol><symbol id="twitter-icon" viewBox="0 0 39 32"><path d="M26.812.022a8.277 8.277 0 0 1 6.387 2.537l.003.003a13.3 13.3 0 0 0 4.212-1.436l-.07.035 1.005-.554a8.157 8.157 0 0 1-2.602 3.79l-.015.012a3.882 3.882 0 0 1-.867.621l-.021.01v.015a14.99 14.99 0 0 0 4.67-1.27l-.094.038v.015a13.234 13.234 0 0 1-2.721 3.123l-.021.017c-.42.339-.842.677-1.262 1a23.448 23.448 0 0 1-.397 5.348l.023-.146c-2.019 9.066-7.37 15.223-15.837 17.87-2.009.597-4.318.941-6.707.941-1.675 0-3.31-.169-4.889-.491l.157.027a30.287 30.287 0 0 1-4.951-1.631l.2.076a19.495 19.495 0 0 1-2.376-1.235l.087.05c-.237-.139-.473-.292-.71-.431a14.064 14.064 0 0 0 2.62.09l-.038.002c.796-.123 1.575-.092 2.309-.246a16.55 16.55 0 0 0 4.934-1.798l-.084.043a9.196 9.196 0 0 0 2.2-1.44l-.01.009a7.026 7.026 0 0 1-2.454-.447l.049.016c-2.432-.84-4.308-2.73-5.112-5.114l-.017-.057a8.014 8.014 0 0 0 3.666-.183l-.056.014a5.792 5.792 0 0 1-2.659-1.073l.016.011c-2.296-1.372-3.81-3.845-3.81-6.671 0-.084.001-.168.004-.252v.012c.277.123.553.262.828.385.486.204 1.055.37 1.646.471l.047.007a2.17 2.17 0 0 0 1.119.09l-.013.002h-.04c-.406-.462-1.07-.785-1.479-1.293a8.219 8.219 0 0 1-2.036-5.429c0-.673.081-1.327.232-1.954l-.012.056a9.197 9.197 0 0 1 .892-2.154l-.024.045c.014 0 .026.015.04.015.216.319.457.597.726.843l.004.003c.716.862 1.505 1.62 2.371 2.283l.035.026a23.59 23.59 0 0 0 9.721 4.741l.159.03c1.084.287 2.333.46 3.619.477h.011a7.39 7.39 0 0 1-.224-1.827c0-.703.096-1.383.275-2.028l-.013.053A7.987 7.987 0 0 1 23.983.716l.051-.02A8.701 8.701 0 0 1 25.77.152l.058-.01c.326-.046.656-.077.984-.123z"/></symbol></defs></svg>